<svg width="601" height="519" viewBox="0 0 601 519" fill="none" xmlns="http://www.w3.org/2000/svg">
<g clip-path="url(#clip0_731_6757)">
<path d="M439.919 220.458H453.625V226.289C453.625 228.107 452.902 229.85 451.616 231.136C450.329 232.421 448.585 233.143 446.766 233.143C444.946 233.143 443.202 232.421 441.915 231.136C440.629 229.85 439.906 228.107 439.906 226.289V220.458H439.919Z" fill="#090F1B"/>
<path d="M463.001 253.422H434.972L424.584 214.725L470.391 210.941L463.001 253.422V253.422Z" stroke="#090F1B" stroke-linecap="round" stroke-linejoin="round"/>
<path d="M434.971 253.422L439.104 213.53L447.493 253.422L454.216 212.272L463 253.422H441.337" stroke="#090F1B" stroke-linecap="round" stroke-linejoin="round"/>
<path d="M223.74 445.736H245.576V457.127C245.576 458.284 245.348 459.431 244.905 460.5C244.462 461.569 243.812 462.541 242.993 463.36C242.174 464.178 241.201 464.827 240.131 465.27C239.061 465.713 237.914 465.941 236.756 465.941H232.561C231.403 465.941 230.256 465.713 229.185 465.27C228.115 464.827 227.143 464.178 226.324 463.36C225.505 462.541 224.855 461.569 224.412 460.5C223.968 459.431 223.74 458.284 223.74 457.127V445.736Z" fill="#090F1B"/>
<path d="M263.589 499.596H216.105L198.5 444.565L276.123 439.177L263.589 499.596Z" stroke="#090F1B" stroke-width="2" stroke-linecap="round" stroke-linejoin="round"/>
<path d="M216.104 499.596L223.098 442.864L237.31 499.596L248.722 441.088L263.588 499.596H226.886" stroke="#090F1B" stroke-width="2" stroke-linecap="round" stroke-linejoin="round"/>
<path d="M269.472 519H210.182V493.494C229.74 497.523 249.914 497.523 269.472 493.494V519Z" fill="#090F1B"/>
<path d="M216.709 494.69C217.191 496.632 217.513 498.611 217.671 500.607C217.856 502.579 217.955 504.552 217.942 506.524C217.93 508.497 217.856 510.469 217.683 512.442C217.521 514.437 217.195 516.416 216.709 518.359C216.232 516.415 215.91 514.436 215.746 512.442C215.574 510.469 215.475 508.497 215.487 506.524C215.5 504.552 215.574 502.579 215.759 500.607C215.913 498.612 216.23 496.633 216.709 494.69ZM222.84 519C222.362 517.074 222.044 515.111 221.89 513.132C221.705 511.172 221.606 509.224 221.606 507.264C221.606 505.304 221.705 503.356 221.878 501.396C222.042 499.417 222.364 497.455 222.84 495.528C223.328 497.453 223.65 499.416 223.802 501.396C224.164 505.3 224.164 509.228 223.802 513.132C223.644 515.111 223.322 517.074 222.84 519ZM228.959 519C228.478 517.124 228.156 515.21 227.997 513.28C227.635 509.471 227.635 505.636 227.997 501.827C228.149 499.896 228.471 497.982 228.959 496.107C229.435 497.985 229.757 499.898 229.921 501.827C230.094 503.738 230.193 505.649 230.193 507.547C230.193 509.446 230.094 511.369 229.909 513.28C229.754 515.21 229.436 517.123 228.959 519ZM234.4 519C233.924 517.148 233.602 515.259 233.437 513.354C233.265 511.468 233.166 509.594 233.166 507.708C233.166 505.822 233.252 503.935 233.437 502.062C233.595 500.155 233.917 498.266 234.4 496.415C234.883 498.266 235.205 500.155 235.362 502.062C235.551 503.938 235.642 505.822 235.633 507.708C235.633 509.594 235.535 511.468 235.362 513.354C235.198 515.259 234.876 517.148 234.4 519ZM239.828 519C239.352 517.156 239.03 515.276 238.866 513.378C238.693 511.505 238.594 509.68 238.594 507.757C238.594 505.834 238.693 504.059 238.866 502.136C239.024 500.238 239.346 498.357 239.828 496.514C240.31 498.357 240.632 500.238 240.79 502.136C240.979 504.003 241.07 505.88 241.062 507.757C241.062 509.631 240.963 511.455 240.79 513.378C240.626 515.276 240.304 517.156 239.828 519ZM245.577 519C245.096 517.149 244.774 515.26 244.615 513.354C244.426 511.474 244.335 509.585 244.343 507.695C244.343 505.809 244.43 503.935 244.602 502.049C244.765 500.139 245.091 498.246 245.577 496.391C246.053 498.247 246.375 500.14 246.539 502.049C246.712 503.935 246.811 505.809 246.798 507.695C246.806 509.585 246.716 511.474 246.527 513.354C246.372 515.259 246.054 517.148 245.577 519ZM251.671 519C251.188 517.116 250.866 515.194 250.709 513.255C250.347 509.438 250.347 505.595 250.709 501.778C250.861 499.843 251.183 497.925 251.671 496.046C252.147 497.927 252.469 499.844 252.633 501.778C252.806 503.701 252.905 505.612 252.905 507.523C252.905 509.434 252.806 511.344 252.621 513.255C252.468 515.194 252.15 517.115 251.671 519ZM257.84 519C257.361 517.061 257.043 515.086 256.89 513.095C256.705 511.135 256.606 509.162 256.606 507.202C256.606 505.242 256.705 503.27 256.877 501.297C257.042 499.311 257.364 497.34 257.84 495.405C258.327 497.338 258.649 499.309 258.802 501.297C258.987 503.27 259.086 505.23 259.073 507.202C259.061 509.175 258.987 511.135 258.802 513.095C258.644 515.086 258.322 517.061 257.84 519ZM264.353 494.455C264.832 496.482 265.153 498.543 265.316 500.619C265.488 502.666 265.587 504.7 265.587 506.783C265.587 508.867 265.501 510.876 265.316 512.947C265.161 515.024 264.839 517.085 264.353 519.111C263.868 517.085 263.546 515.024 263.391 512.947C263.218 510.901 263.12 508.854 263.12 506.783C263.12 504.712 263.218 502.703 263.391 500.619C263.554 498.543 263.875 496.482 264.353 494.455Z" fill="#090F1B"/>
<path d="M210.182 506.241C215.116 505.735 220.051 505.464 224.986 505.291C229.921 505.119 234.855 505.033 239.79 505.008C244.725 504.983 249.659 505.082 254.594 505.279C259.529 505.476 264.464 505.735 269.398 506.241C264.464 506.758 259.529 507.03 254.594 507.202C249.659 507.375 244.725 507.449 239.79 507.473C234.855 507.498 229.921 507.399 224.986 507.202C220.051 507.005 215.116 506.758 210.182 506.241Z" fill="#090F1B"/>
<path d="M238.31 449.225C234.806 375.817 231.718 302.389 229.045 228.94C227.992 200.043 227.005 171.159 226.084 142.287C227.429 142.287 228.773 142.201 230.13 142.201C294.714 142.201 347.096 201.177 347.096 273.911C347.096 310.673 333.698 343.896 312.133 367.8C279.872 404.5 276.11 439.178 276.11 439.178C264.464 446.18 250.856 448.732 238.31 449.225Z" fill="#E5E5E5"/>
<path d="M230.13 142.201H226.084C227.013 171.081 228 199.965 229.045 228.853C231.726 302.302 234.814 375.731 238.31 449.138C224.884 449.518 211.474 447.948 198.499 444.479C189.148 405.695 157.035 376.676 157.035 376.676C130.252 352.55 113.104 315.468 113.104 273.862C113.104 202.644 163.302 144.63 226.035 142.238H227.367C228.317 142.213 229.218 142.201 230.13 142.201Z" fill="#F1CA73"/>
<path d="M220.396 448.584C221.433 435.467 216.695 416.938 211.181 400.37C204.366 380.667 193.996 362.379 180.585 346.411C135.396 291.614 145.24 207.353 150.57 177.385C127.549 201.436 113.152 235.794 113.152 273.936C113.152 315.542 130.301 352.624 157.084 376.75C183.867 400.875 189.159 405.806 198.548 444.552C205.706 446.502 213.014 447.85 220.396 448.584Z" fill="#E5E5E5"/>
<path d="M257.234 446.734C253.854 433.778 257.469 412.87 262.292 394.267C267.689 374.123 276.733 355.137 288.977 338.25C326.456 285.635 316.784 211.902 309.135 176.756C332.464 200.82 347.096 235.411 347.096 273.862C347.096 310.623 333.698 343.847 312.133 367.75C279.872 404.45 276.11 439.128 276.11 439.128C270.244 442.613 263.878 445.179 257.234 446.734Z" fill="#F1CA73"/>
<path d="M114.326 255.309C116.606 257.479 119.406 259.028 122.456 259.808C125.493 260.566 128.683 260.455 131.659 259.488L133.843 258.674L135.891 257.54C136.224 257.343 136.582 257.182 136.89 256.96L137.828 256.258L139.691 254.852C140.826 253.78 141.961 252.72 143.046 251.598L146.069 248.023C146.133 247.96 146.22 247.925 146.309 247.925C146.399 247.925 146.485 247.96 146.55 248.023C151.854 253.648 158.332 258.038 165.524 260.881C172.706 263.711 180.445 264.842 188.137 264.185C191.964 263.807 195.745 263.056 199.425 261.941C201.239 261.312 203.127 260.708 204.854 259.968C205.742 259.599 206.643 259.253 207.506 258.847L210.109 257.614C216.972 254.065 223.383 249.707 229.207 244.633C229.318 244.537 229.46 244.485 229.607 244.485C229.755 244.485 229.897 244.537 230.008 244.633C235.925 249.648 242.479 253.859 249.501 257.158C256.505 260.55 263.998 262.826 271.707 263.901C279.395 264.998 287.225 264.579 294.752 262.668C302.281 260.642 309.385 257.28 315.725 252.744C315.779 252.706 315.843 252.686 315.91 252.686C315.976 252.686 316.041 252.706 316.095 252.744C318.248 254.343 320.559 255.718 322.991 256.849C325.423 258.005 327.982 258.874 330.615 259.438C333.261 259.964 335.977 260.035 338.646 259.648C341.288 259.162 343.805 258.152 346.048 256.677C343.815 258.201 341.298 259.261 338.646 259.796C335.964 260.252 333.224 260.252 330.541 259.796C327.869 259.274 325.265 258.446 322.781 257.33C320.289 256.22 317.912 254.866 315.688 253.287H316.058C309.706 257.943 302.569 261.421 294.986 263.556C287.352 265.614 279.383 266.129 271.546 265.072C263.74 263.997 256.148 261.713 249.044 258.304C241.901 254.979 235.23 250.722 229.207 245.644H230.008C224.111 250.781 217.607 255.178 210.64 258.736L208 259.968C207.111 260.375 206.198 260.72 205.298 261.103C203.509 261.892 201.597 262.446 199.771 263.087C196.007 264.204 192.144 264.955 188.236 265.331C184.323 265.65 180.386 265.518 176.504 264.937C172.622 264.338 168.825 263.282 165.191 261.793C157.907 258.839 151.371 254.304 146.056 248.516H146.575L143.478 252.103C142.355 253.225 141.171 254.285 140.011 255.345L138.173 256.652L137.211 257.343C136.878 257.577 136.508 257.725 136.175 257.922L134.065 259.031L131.82 259.82C128.779 260.748 125.539 260.803 122.468 259.981C119.398 259.149 116.593 257.54 114.326 255.309ZM118.064 311.77C121.194 313.735 124.636 315.152 128.242 315.961C131.83 316.788 135.549 316.876 139.173 316.22C142.772 315.51 146.175 314.034 149.153 311.893C152.129 309.757 154.766 307.184 156.975 304.262C157.004 304.223 157.04 304.19 157.083 304.165C157.125 304.141 157.172 304.125 157.22 304.119C157.269 304.113 157.318 304.118 157.365 304.132C157.412 304.146 157.455 304.169 157.493 304.201L157.567 304.262C159.704 306.955 162.277 309.272 165.179 311.116C168.067 312.994 171.225 314.424 174.542 315.357C181.219 317.13 188.237 317.172 194.935 315.48C201.639 313.755 208.047 311.038 213.946 307.418C219.855 303.829 225.459 299.759 230.699 295.251C230.76 295.197 230.83 295.156 230.906 295.13C230.983 295.104 231.064 295.094 231.144 295.099C231.225 295.105 231.303 295.127 231.375 295.163C231.447 295.2 231.511 295.251 231.563 295.312C235.96 300.684 241.201 305.305 247.083 308.996C252.945 312.727 259.498 315.242 266.353 316.393C273.231 317.413 280.25 316.9 286.906 314.889C293.532 312.781 299.778 309.631 305.411 305.557C305.466 305.52 305.53 305.5 305.596 305.5C305.662 305.5 305.726 305.52 305.781 305.557C308.628 307.071 311.575 308.389 314.602 309.501C317.618 310.644 320.725 311.527 323.892 312.14C327.06 312.786 330.305 312.973 333.527 312.694C336.761 312.438 339.878 311.374 342.594 309.6C339.898 311.433 336.784 312.561 333.539 312.879C330.302 313.225 327.031 313.101 323.83 312.509C320.624 311.953 317.472 311.129 314.405 310.044C311.329 308.974 308.335 307.68 305.448 306.173H305.818C300.142 310.372 293.827 313.631 287.116 315.826C280.343 317.969 273.172 318.547 266.143 317.515C259.125 316.363 252.412 313.809 246.404 310.007C240.447 306.246 235.143 301.541 230.699 296.077L231.588 296.175C226.283 300.756 220.6 304.88 214.6 308.503C208.591 312.152 202.071 314.885 195.256 316.615C188.361 318.351 181.133 318.262 174.283 316.356C170.887 315.37 167.662 313.869 164.722 311.905C161.754 309.977 159.131 307.564 156.962 304.768H157.567C155.285 307.723 152.569 310.317 149.511 312.46C146.433 314.584 142.931 316.014 139.247 316.652C135.553 317.262 131.772 317.103 128.143 316.183C124.558 315.293 121.15 313.8 118.064 311.77ZM142.837 361.537C146.428 363.305 150.254 364.551 154.199 365.235C158.117 365.942 162.127 365.971 166.054 365.322C168.005 364.982 169.921 364.467 171.779 363.781C173.61 363.041 175.373 362.142 177.047 361.093C180.358 358.905 183.277 356.175 185.682 353.019C185.753 352.93 185.852 352.87 185.962 352.847C186.073 352.825 186.188 352.842 186.287 352.895C189.966 354.939 193.941 356.399 198.068 357.222C202.191 358.08 206.428 358.238 210.603 357.691C214.764 357.123 218.794 355.829 222.508 353.869C226.215 351.886 229.628 349.396 232.649 346.473C232.706 346.415 232.774 346.369 232.849 346.338C232.924 346.306 233.005 346.29 233.086 346.29C233.168 346.29 233.249 346.306 233.324 346.338C233.399 346.369 233.467 346.415 233.524 346.473C236.292 349.98 239.833 352.8 243.871 354.714C247.909 356.628 252.335 357.583 256.804 357.506C261.288 357.365 265.712 356.43 269.869 354.744C274.062 353.095 278.056 350.978 281.774 348.433C281.846 348.376 281.935 348.345 282.027 348.345C282.118 348.345 282.208 348.376 282.279 348.433C284.904 350.585 287.665 352.566 290.545 354.362C293.423 356.172 296.439 357.755 299.563 359.096C302.693 360.479 306.026 361.349 309.433 361.673C312.85 362.014 316.282 361.198 319.179 359.355C316.306 361.28 312.87 362.187 309.42 361.932C305.99 361.677 302.622 360.882 299.44 359.577C296.248 358.305 293.173 356.758 290.249 354.954C287.308 353.178 284.485 351.214 281.798 349.074H282.304C278.569 351.713 274.546 353.922 270.313 355.657C266.047 357.413 261.501 358.394 256.89 358.554C252.239 358.661 247.627 357.692 243.413 355.723C239.199 353.753 235.498 350.836 232.599 347.2L233.524 347.286C230.42 350.292 226.907 352.845 223.087 354.868C219.235 356.876 215.059 358.19 210.751 358.751C206.454 359.297 202.096 359.118 197.859 358.221C193.616 357.353 189.541 355.804 185.793 353.635L186.41 353.524C183.918 356.723 180.902 359.478 177.491 361.673C175.764 362.735 173.943 363.634 172.05 364.36C170.148 365.042 168.186 365.541 166.19 365.852C162.192 366.406 158.128 366.272 154.174 365.457C150.226 364.7 146.408 363.38 142.837 361.537ZM181.611 407.138C184.215 407.767 186.878 408.122 189.556 408.198C192.214 408.288 194.873 408.06 197.476 407.52C200.063 406.975 202.538 405.991 204.792 404.61C207.006 403.204 208.939 401.398 210.492 399.285C210.562 399.193 210.66 399.126 210.771 399.095C210.882 399.064 211.001 399.07 211.108 399.112C213.108 399.878 215.173 400.464 217.277 400.863C219.362 401.265 221.482 401.459 223.606 401.442C225.695 401.403 227.77 401.084 229.774 400.493C231.769 399.853 233.641 398.882 235.313 397.621C235.426 397.533 235.565 397.485 235.708 397.485C235.851 397.485 235.99 397.533 236.103 397.621C237.777 399.01 239.664 400.121 241.691 400.912C243.715 401.741 245.862 402.229 248.045 402.354C250.231 402.495 252.426 402.287 254.546 401.738C255.609 401.474 256.652 401.136 257.668 400.727C258.692 400.32 259.666 399.803 260.665 399.346C260.76 399.303 260.865 399.29 260.967 399.31C261.069 399.33 261.162 399.382 261.233 399.457C262.881 401.224 264.737 402.784 266.76 404.105C268.781 405.441 270.988 406.471 273.311 407.162C275.644 407.847 278.1 408.007 280.503 407.631L282.292 407.261L283.994 406.632C284.574 406.435 285.129 406.17 285.647 405.843L287.264 404.956C285.264 406.42 282.977 407.445 280.552 407.964C278.1 408.44 275.573 408.373 273.15 407.766C270.745 407.109 268.45 406.099 266.34 404.771C264.214 403.453 262.255 401.885 260.505 400.098L261.11 400.197C260.073 400.702 259.086 401.27 258.025 401.701C256.968 402.143 255.88 402.506 254.768 402.786C251.409 403.665 247.889 403.739 244.496 403.002C241.102 402.265 237.931 400.738 235.239 398.545H236.029C234.242 399.896 232.234 400.926 230.095 401.59C227.96 402.203 225.753 402.527 223.532 402.552C221.331 402.547 219.137 402.324 216.981 401.886C214.819 401.46 212.7 400.837 210.652 400.024L211.281 399.852C209.582 402.032 207.49 403.876 205.113 405.288C202.754 406.656 200.18 407.615 197.501 408.124C194.834 408.587 192.12 408.72 189.42 408.518C186.773 408.359 184.153 407.896 181.611 407.138ZM124.467 214.824C126.636 214.396 128.753 213.739 130.783 212.864C132.815 212.006 134.786 211.009 136.68 209.881C138.566 208.732 140.379 207.469 142.109 206.096C142.997 205.443 143.786 204.691 144.576 203.988C145.366 203.285 146.18 202.472 147.043 201.72C147.095 201.675 147.161 201.651 147.228 201.651C147.296 201.651 147.362 201.675 147.413 201.72C150.39 203.985 153.594 205.935 156.975 207.538C160.342 209.178 163.868 210.471 167.498 211.397C174.748 213.318 182.339 213.579 189.704 212.161C197.024 210.663 203.959 207.684 210.084 203.409C216.251 199.157 221.826 194.108 226.665 188.393C226.769 188.281 226.91 188.21 227.062 188.194C227.214 188.178 227.367 188.218 227.492 188.307C233.724 192.922 240.369 196.954 247.342 200.351C254.284 203.817 261.608 206.456 269.165 208.216C276.701 210.058 284.521 210.43 292.198 209.314C296.019 208.649 299.746 207.531 303.301 205.985C306.814 204.364 310.126 202.341 313.171 199.957C313.189 199.938 313.211 199.923 313.236 199.912C313.26 199.902 313.286 199.897 313.313 199.897C313.339 199.897 313.365 199.902 313.39 199.912C313.414 199.923 313.436 199.938 313.455 199.957C314.4 201.192 315.499 202.302 316.724 203.261C317.946 204.235 319.311 205.017 320.77 205.578C322.233 206.132 323.798 206.368 325.36 206.269C326.929 206.164 328.464 205.767 329.887 205.097C328.475 205.793 326.942 206.211 325.372 206.33C323.819 206.508 322.246 206.353 320.758 205.874C319.266 205.33 317.865 204.566 316.601 203.606C315.328 202.651 314.183 201.537 313.196 200.29H313.479C307.446 205.387 300.166 208.79 292.383 210.152C284.59 211.389 276.63 211.109 268.943 209.326C261.294 207.576 253.878 204.932 246.848 201.448C239.785 198.048 233.053 194 226.739 189.355L227.578 189.269C222.666 195.059 216.993 200.16 210.714 204.432C204.437 208.766 197.336 211.766 189.852 213.246C182.346 214.648 174.618 214.31 167.263 212.26C163.6 211.273 160.045 209.918 156.654 208.216C153.244 206.557 150.026 204.532 147.056 202.176H147.438C146.612 202.928 145.797 203.692 144.971 204.407C144.144 205.122 143.281 205.849 142.368 206.49C140.602 207.833 138.756 209.068 136.841 210.189C134.909 211.283 132.906 212.247 130.845 213.073C128.788 213.883 126.649 214.469 124.467 214.824Z" fill="#686868"/>
<path d="M150.103 207.255C150.129 207.66 150.072 208.067 149.934 208.449C149.797 208.831 149.583 209.182 149.305 209.478C149.027 209.774 148.691 210.011 148.318 210.172C147.944 210.334 147.542 210.417 147.136 210.417C146.729 210.417 146.327 210.334 145.954 210.172C145.581 210.011 145.245 209.774 144.967 209.478C144.689 209.182 144.474 208.831 144.337 208.449C144.2 208.067 144.142 207.66 144.169 207.255C144.169 205.615 147.13 201.831 147.13 201.831C147.13 201.831 150.103 205.615 150.103 207.255ZM230.156 194.249C230.182 194.654 230.125 195.061 229.988 195.443C229.851 195.826 229.636 196.176 229.358 196.472C229.08 196.769 228.744 197.005 228.371 197.166C227.998 197.328 227.596 197.411 227.189 197.411C226.783 197.411 226.38 197.328 226.007 197.166C225.634 197.005 225.298 196.769 225.02 196.472C224.742 196.176 224.528 195.826 224.391 195.443C224.253 195.061 224.196 194.654 224.222 194.249C224.222 192.622 227.195 188.825 227.195 188.825C227.195 188.825 230.156 192.622 230.156 194.249ZM316.403 205.578C316.429 205.984 316.372 206.39 316.234 206.773C316.097 207.155 315.883 207.505 315.605 207.802C315.327 208.098 314.991 208.334 314.618 208.496C314.245 208.657 313.842 208.74 313.436 208.74C313.029 208.74 312.627 208.657 312.254 208.496C311.881 208.334 311.545 208.098 311.267 207.802C310.989 207.505 310.775 207.155 310.637 206.773C310.5 206.39 310.443 205.984 310.469 205.578C310.469 203.951 313.442 200.154 313.442 200.154C313.442 200.154 316.403 203.951 316.403 205.578ZM149.276 253.644C149.302 254.05 149.245 254.456 149.108 254.839C148.97 255.221 148.756 255.571 148.478 255.868C148.2 256.164 147.864 256.4 147.491 256.562C147.118 256.723 146.716 256.807 146.309 256.807C145.903 256.807 145.5 256.723 145.127 256.562C144.754 256.4 144.418 256.164 144.14 255.868C143.862 255.571 143.648 255.221 143.511 254.839C143.373 254.456 143.316 254.05 143.342 253.644C143.342 252.005 146.315 248.208 146.315 248.208C146.315 248.208 149.276 252.005 149.276 253.644ZM160.207 309.995C160.207 310.783 159.893 311.538 159.336 312.095C158.778 312.653 158.022 312.966 157.233 312.966C156.445 312.966 155.689 312.653 155.131 312.095C154.573 311.538 154.26 310.783 154.26 309.995C154.26 308.355 157.233 304.57 157.233 304.57C157.233 304.57 160.207 308.355 160.207 309.995ZM233.944 301.18C233.97 301.586 233.912 301.992 233.775 302.375C233.638 302.757 233.424 303.107 233.146 303.404C232.868 303.7 232.532 303.936 232.159 304.098C231.785 304.259 231.383 304.342 230.977 304.342C230.57 304.342 230.168 304.259 229.795 304.098C229.422 303.936 229.086 303.7 228.808 303.404C228.53 303.107 228.315 302.757 228.178 302.375C228.041 301.992 227.983 301.586 228.01 301.18C228.01 299.541 230.97 295.744 230.97 295.744C230.97 295.744 233.944 299.565 233.944 301.18ZM308.618 311.166C308.57 311.919 308.236 312.626 307.685 313.142C307.134 313.658 306.407 313.945 305.651 313.945C304.896 313.945 304.169 313.658 303.618 313.142C303.067 312.626 302.733 311.919 302.684 311.166C302.684 309.526 305.645 305.729 305.645 305.729C305.645 305.729 308.618 309.526 308.618 311.166ZM284.981 354.288C285.007 354.694 284.95 355.1 284.813 355.483C284.675 355.865 284.461 356.215 284.183 356.512C283.905 356.808 283.569 357.044 283.196 357.206C282.823 357.367 282.421 357.451 282.014 357.451C281.607 357.451 281.205 357.367 280.832 357.206C280.459 357.044 280.123 356.808 279.845 356.512C279.567 356.215 279.353 355.865 279.215 355.483C279.078 355.1 279.021 354.694 279.047 354.288C279.047 352.649 282.008 348.864 282.008 348.864C282.008 348.864 284.981 352.649 284.981 354.288ZM236.029 352.304C235.98 353.057 235.646 353.763 235.095 354.28C234.544 354.796 233.817 355.083 233.062 355.083C232.306 355.083 231.579 354.796 231.028 354.28C230.477 353.763 230.143 353.057 230.095 352.304C230.095 350.664 233.055 346.867 233.055 346.867C233.055 346.867 236.029 350.664 236.029 352.304ZM188.976 358.813C188.927 359.566 188.594 360.272 188.043 360.789C187.491 361.305 186.764 361.592 186.009 361.592C185.254 361.592 184.526 361.305 183.975 360.789C183.424 360.272 183.091 359.566 183.042 358.813C183.042 357.173 186.003 353.376 186.003 353.376C186.003 353.376 188.976 357.173 188.976 358.813ZM214.661 404.561C214.715 404.946 214.693 405.339 214.596 405.715C214.498 406.092 214.328 406.446 214.093 406.757C213.859 407.067 213.566 407.329 213.23 407.527C212.895 407.724 212.524 407.854 212.138 407.908C211.753 407.962 211.36 407.94 210.983 407.843C210.606 407.745 210.252 407.575 209.941 407.341C209.63 407.107 209.368 406.814 209.171 406.478C208.973 406.143 208.843 405.772 208.789 405.387C208.554 403.76 210.972 399.593 210.972 399.593C210.972 399.593 214.488 402.946 214.661 404.561ZM238.952 403.378C238.944 404.139 238.642 404.869 238.111 405.415C237.58 405.961 236.858 406.282 236.097 406.312C235.335 406.342 234.591 406.079 234.018 405.576C233.445 405.074 233.087 404.37 233.018 403.612C233.018 401.972 235.769 398.064 235.769 398.064C235.769 398.064 238.878 401.738 238.952 403.378ZM263.33 405.436C263.246 406.211 262.862 406.921 262.26 407.415C261.657 407.909 260.885 408.147 260.109 408.077C259.332 408.008 258.615 407.637 258.11 407.044C257.604 406.45 257.353 405.683 257.408 404.906C257.556 403.279 260.863 399.766 260.863 399.766C260.863 399.766 263.478 403.809 263.33 405.436ZM232.648 250.476C232.648 251.264 232.335 252.02 231.777 252.577C231.22 253.134 230.464 253.447 229.675 253.447C228.887 253.447 228.13 253.134 227.573 252.577C227.015 252.02 226.702 251.264 226.702 250.476C226.702 248.836 229.675 245.039 229.675 245.039C229.675 245.039 232.648 248.836 232.648 250.476ZM318.796 258.279C318.748 259.033 318.414 259.739 317.863 260.256C317.312 260.772 316.585 261.059 315.829 261.059C315.074 261.059 314.347 260.772 313.796 260.256C313.245 259.739 312.911 259.033 312.862 258.279C312.862 256.64 315.835 252.843 315.835 252.843C315.835 252.843 318.796 256.64 318.796 258.279Z" fill="#090F1B"/>
<path d="M466.652 266.453H429.42V250.427C441.702 252.954 454.37 252.954 466.652 250.427V266.453Z" fill="#090F1B"/>
<path d="M433.528 251.191C434.351 256.113 434.351 261.137 433.528 266.058C433.086 263.618 432.88 261.141 432.911 258.662C432.881 256.158 433.088 253.656 433.528 251.191ZM437.377 266.453C436.938 264.012 436.731 261.536 436.76 259.056C436.724 256.576 436.931 254.099 437.377 251.659C438.199 256.536 438.199 261.515 437.377 266.391V266.453ZM441.214 266.453C440.392 261.697 440.392 256.835 441.214 252.079C442.036 256.835 442.036 261.697 441.214 266.453ZM444.656 266.453C443.833 261.763 443.833 256.966 444.656 252.276C445.478 256.966 445.478 261.763 444.656 266.453ZM448.036 266.453C447.605 264.127 447.399 261.766 447.419 259.401C447.392 257.032 447.599 254.666 448.036 252.338C448.48 254.665 448.687 257.032 448.653 259.401C448.68 261.766 448.473 264.128 448.036 266.453ZM451.639 266.453C450.816 261.759 450.816 256.958 451.639 252.264C452.461 256.958 452.461 261.759 451.639 266.453ZM455.426 266.453C454.603 261.684 454.603 256.81 455.426 252.042C456.249 256.81 456.249 261.684 455.426 266.453ZM459.374 266.453C458.937 264.012 458.73 261.536 458.757 259.056C458.724 256.577 458.931 254.1 459.374 251.659C459.81 254.1 460.017 256.577 459.991 259.056C460.011 261.535 459.804 264.011 459.374 266.453ZM463.433 251.043C464.255 256.147 464.255 261.349 463.433 266.453C462.61 261.349 462.61 256.147 463.433 251.043Z" fill="#090F1B"/>
<path d="M429.42 258.44C432.529 258.193 435.588 258.07 438.734 257.971C441.88 257.873 444.903 257.848 448.036 257.823C451.17 257.799 454.205 257.823 457.35 257.971L462.001 258.144C463.544 258.243 465.098 258.304 466.652 258.44C465.098 258.588 463.544 258.649 462.001 258.748L457.35 258.921C454.242 259.032 451.182 259.044 448.036 259.056C444.89 259.069 441.868 259.056 438.734 258.921C435.601 258.785 432.529 258.699 429.42 258.44Z" fill="#090F1B"/>
<path d="M447.086 222.64C444.881 176.55 442.94 130.448 441.263 84.3343C440.605 66.1878 439.988 48.0536 439.412 29.9318C440.251 29.9318 441.09 29.8701 441.953 29.8701C482.505 29.8701 515.382 66.8535 515.382 112.565C515.382 135.655 506.968 156.514 493.435 171.516C473.178 194.569 470.809 216.34 470.809 216.34C463.506 220.741 454.956 222.356 447.086 222.64Z" fill="#E5E5E5"/>
<path d="M441.953 29.8701H439.412C439.987 48.0084 440.604 66.1426 441.262 84.2727C442.907 130.387 444.848 176.489 447.085 222.578C438.656 222.821 430.237 221.836 422.091 219.656C416.219 195.371 396.011 177.126 396.011 177.126C379.196 161.975 368.426 138.688 368.426 112.565C368.426 67.8644 399.946 31.4234 439.338 29.9687H440.164C440.806 29.8824 441.373 29.8701 441.953 29.8701Z" fill="#287B77"/>
<path d="M435.834 222.245C436.488 214.01 433.54 202.373 430.048 191.968C425.765 179.592 419.246 168.105 410.815 158.079C382.441 123.672 388.609 70.7614 391.977 51.9492C377.506 67.0508 368.5 88.6244 368.5 112.565C368.5 138.688 379.27 161.975 396.085 177.126C412.9 192.276 416.256 195.371 422.128 219.718C426.619 220.94 431.203 221.785 435.834 222.245Z" fill="#E5E5E5"/>
<path d="M458.929 221.087C456.807 212.95 459.077 199.821 462.112 188.135C465.495 175.487 471.169 163.566 478.853 152.963C502.392 119.925 496.322 73.634 491.523 51.6042C506.155 66.7058 515.346 88.4274 515.346 112.565C515.346 135.655 506.932 156.514 493.398 171.517C473.141 194.57 470.773 216.341 470.773 216.341C467.087 218.51 463.094 220.11 458.929 221.087Z" fill="#287B77"/>
<path d="M369.24 100.891C370.681 102.238 372.444 103.194 374.36 103.664C376.255 104.134 378.244 104.057 380.097 103.442C381.933 102.794 383.632 101.807 385.105 100.533C385.809 99.8551 386.512 99.1894 387.19 98.4867L389.078 96.243C389.109 96.2106 389.146 96.1848 389.188 96.1671C389.229 96.1495 389.273 96.1404 389.318 96.1404C389.363 96.1404 389.408 96.1495 389.449 96.1671C389.491 96.1848 389.528 96.2106 389.559 96.243C392.883 99.7496 396.939 102.481 401.439 104.244C405.929 105.997 410.763 106.693 415.565 106.278C417.953 106.037 420.312 105.566 422.609 104.872C424.9 104.141 427.128 103.225 429.271 102.136C433.563 99.9106 437.573 97.179 441.213 93.9994C441.324 93.9014 441.466 93.8474 441.614 93.8474C441.762 93.8474 441.905 93.9014 442.015 93.9994C445.713 97.1345 449.807 99.7706 454.192 101.84C458.577 103.945 463.263 105.355 468.083 106.019C472.891 106.699 477.785 106.436 482.492 105.242C487.198 103.991 491.64 101.903 495.606 99.0784C495.66 99.0402 495.725 99.0197 495.791 99.0197C495.858 99.0197 495.922 99.0402 495.976 99.0784C497.322 100.082 498.764 100.95 500.282 101.667C501.798 102.391 503.392 102.941 505.032 103.307C506.685 103.639 508.383 103.689 510.053 103.455C511.728 103.174 513.328 102.553 514.753 101.63C513.35 102.608 511.764 103.291 510.09 103.64C508.395 103.929 506.664 103.929 504.97 103.64C503.27 103.321 501.614 102.804 500.035 102.099C498.461 101.427 496.956 100.601 495.544 99.6332H495.915C491.923 102.577 487.435 104.782 482.665 106.142C477.847 107.466 472.811 107.802 467.861 107.128C462.935 106.465 458.143 105.034 453.661 102.888C449.184 100.79 445.003 98.1128 441.226 94.924H442.04C438.319 98.1587 434.218 100.928 429.826 103.171C427.615 104.281 425.317 105.209 422.955 105.945C420.58 106.648 418.142 107.119 415.676 107.35C410.716 107.765 405.729 106.988 401.131 105.082C396.541 103.204 392.424 100.333 389.078 96.6745H389.596L387.634 98.9305C386.931 99.6332 386.179 100.299 385.451 100.965C383.895 102.234 382.117 103.204 380.208 103.825C378.284 104.403 376.236 104.429 374.298 103.899C372.382 103.347 370.64 102.311 369.24 100.891ZM371.584 136.345C373.561 137.549 375.725 138.416 377.987 138.91C380.228 139.427 382.553 139.465 384.809 139.02C387.042 138.586 389.149 137.659 390.978 136.308L391.681 135.828C391.903 135.655 392.113 135.458 392.322 135.273L393.556 134.126C394.358 133.313 395.061 132.413 395.826 131.562C395.862 131.526 395.904 131.498 395.95 131.479C395.997 131.459 396.047 131.449 396.097 131.449C396.148 131.449 396.198 131.459 396.244 131.479C396.291 131.498 396.333 131.526 396.369 131.562C399.141 134.924 402.9 137.33 407.114 138.441C411.282 139.514 415.654 139.514 419.821 138.441C424.006 137.353 428.006 135.65 431.689 133.387C435.398 131.129 438.914 128.569 442.2 125.731C442.261 125.678 442.332 125.638 442.409 125.613C442.486 125.588 442.567 125.579 442.648 125.586C442.728 125.593 442.806 125.616 442.878 125.653C442.949 125.691 443.013 125.743 443.064 125.805C445.801 129.16 449.068 132.045 452.736 134.348C456.387 136.687 460.475 138.264 464.752 138.983C469.043 139.632 473.426 139.32 477.582 138.071C481.746 136.777 485.674 134.82 489.216 132.277C489.272 132.245 489.336 132.228 489.401 132.228C489.466 132.228 489.53 132.245 489.586 132.277C491.364 133.218 493.202 134.042 495.088 134.743C496.972 135.471 498.916 136.032 500.899 136.419C502.881 136.831 504.913 136.956 506.931 136.789C508.953 136.617 510.906 135.971 512.631 134.903C510.932 136.042 508.987 136.764 506.956 137.011C504.901 137.242 502.823 137.172 500.788 136.801C498.769 136.467 496.783 135.955 494.854 135.273C492.909 134.598 491.02 133.773 489.203 132.807H489.573C485.999 135.475 482.022 137.556 477.792 138.971C473.517 140.344 468.985 140.719 464.542 140.068C460.113 139.34 455.876 137.73 452.082 135.334C448.276 132.978 444.883 130.013 442.04 126.557L442.916 126.656C439.576 129.526 435.997 132.108 432.22 134.373C428.426 136.677 424.31 138.401 420.006 139.489C415.652 140.569 411.092 140.505 406.769 139.304C402.445 138.033 398.624 135.448 395.838 131.907H396.431C395.641 132.77 394.901 133.683 394.062 134.508L392.73 135.667C392.507 135.852 392.298 136.062 392.063 136.234L391.323 136.715C389.384 138.064 387.166 138.962 384.834 139.341C382.515 139.73 380.141 139.63 377.864 139.045C375.636 138.498 373.514 137.586 371.584 136.345ZM387.141 167.584C389.409 168.65 391.812 169.401 394.284 169.815C396.733 170.239 399.237 170.239 401.686 169.815C402.9 169.603 404.093 169.286 405.251 168.866C406.387 168.389 407.477 167.812 408.508 167.14C409.542 166.475 410.509 165.712 411.395 164.86C411.84 164.444 412.253 163.995 412.629 163.516L413.862 162.123C413.937 162.036 414.039 161.977 414.151 161.957C414.264 161.937 414.38 161.956 414.479 162.012C416.777 163.269 419.252 164.171 421.82 164.687C424.385 165.218 427.023 165.302 429.617 164.933C432.211 164.601 434.721 163.79 437.019 162.542C438.18 161.944 439.29 161.251 440.337 160.471C441.398 159.706 442.336 158.77 443.347 158.005C443.48 157.899 443.649 157.85 443.818 157.869C443.987 157.887 444.142 157.972 444.248 158.104C445.964 160.259 448.155 161.989 450.651 163.158C453.158 164.337 455.9 164.931 458.67 164.896L460.742 164.749C461.432 164.668 462.116 164.545 462.79 164.379C464.157 164.072 465.497 163.66 466.8 163.146C468.107 162.641 469.353 161.987 470.636 161.408L474.264 159.238C474.336 159.188 474.422 159.161 474.51 159.161C474.598 159.161 474.685 159.188 474.757 159.238C476.396 160.579 478.118 161.814 479.914 162.936C481.708 164.079 483.589 165.081 485.539 165.932C487.494 166.805 489.577 167.359 491.708 167.572C493.842 167.798 495.99 167.308 497.814 166.179C496.01 167.425 493.834 168.017 491.646 167.855C489.485 167.716 487.36 167.229 485.354 166.413C483.337 165.623 481.392 164.658 479.544 163.528C477.687 162.415 475.907 161.179 474.214 159.83H474.72L471.019 162.135C469.724 162.764 468.453 163.454 467.121 164.009C465.769 164.529 464.379 164.941 462.963 165.242C462.235 165.377 461.544 165.587 460.816 165.648L458.62 165.809C455.675 165.873 452.755 165.261 450.083 164.021C447.394 162.785 445.032 160.936 443.187 158.622L444.112 158.708C443.076 159.583 442.077 160.532 440.966 161.321C439.863 162.13 438.695 162.847 437.475 163.466C435.053 164.757 432.415 165.593 429.691 165.932C426.974 166.297 424.214 166.184 421.536 165.599C418.852 165.047 416.277 164.06 413.912 162.677L414.529 162.567L413.295 163.997C412.885 164.485 412.435 164.938 411.95 165.353C411.013 166.228 409.988 167.005 408.891 167.67C407.8 168.341 406.653 168.915 405.461 169.384C404.257 169.793 403.018 170.094 401.76 170.284C399.242 170.626 396.684 170.535 394.198 170.013C391.738 169.556 389.36 168.737 387.141 167.584ZM411.481 196.221C413.103 196.583 414.756 196.785 416.416 196.825C418.074 196.85 419.729 196.689 421.351 196.345C422.955 195.99 424.486 195.365 425.879 194.496C427.247 193.614 428.44 192.485 429.395 191.167C429.467 191.079 429.566 191.016 429.677 190.987C429.788 190.958 429.905 190.965 430.011 191.007C431.243 191.479 432.515 191.838 433.811 192.079C435.108 192.327 436.426 192.446 437.747 192.437C439.051 192.411 440.346 192.208 441.596 191.833C442.819 191.438 443.967 190.838 444.988 190.058C445.104 189.971 445.245 189.923 445.389 189.923C445.534 189.923 445.675 189.971 445.79 190.058C447.351 191.348 449.195 192.251 451.172 192.694C453.148 193.138 455.202 193.109 457.165 192.609C458.484 192.271 459.76 191.778 460.964 191.142C461.061 191.101 461.168 191.09 461.271 191.11C461.374 191.13 461.469 191.179 461.544 191.253C462.56 192.362 463.708 193.344 464.962 194.175C466.213 195.013 467.581 195.665 469.02 196.11C470.471 196.547 471.999 196.661 473.499 196.443C475.01 196.192 476.457 195.643 477.755 194.828C476.508 195.77 475.073 196.434 473.548 196.776C471.999 197.097 470.398 197.071 468.86 196.702C467.33 196.306 465.87 195.678 464.53 194.841C463.182 194.015 461.94 193.03 460.829 191.907L461.433 192.005C460.779 192.326 460.2 192.696 459.484 192.967C458.812 193.25 458.119 193.481 457.411 193.657C455.995 194.049 454.523 194.203 453.057 194.113C450.088 193.941 447.248 192.842 444.939 190.97H445.741C444.593 191.832 443.302 192.487 441.929 192.905C440.569 193.296 439.162 193.5 437.747 193.509C436.35 193.507 434.957 193.363 433.589 193.078C432.219 192.799 430.88 192.387 429.592 191.845L430.209 191.685C429.132 193.057 427.81 194.219 426.31 195.112C424.808 195.975 423.168 196.572 421.462 196.875C419.779 197.154 418.067 197.224 416.367 197.084C414.711 196.983 413.072 196.693 411.481 196.221ZM375.606 75.4707C376.963 75.2034 378.286 74.7901 379.554 74.2379C380.828 73.6914 382.064 73.0613 383.255 72.3518C384.431 71.6267 385.56 70.8279 386.635 69.9602C387.712 69.0999 388.741 68.1822 389.719 67.2111C389.769 67.1677 389.832 67.1438 389.898 67.1438C389.964 67.1438 390.028 67.1677 390.077 67.2111C393.836 70.0115 398.107 72.051 402.648 73.2147C407.173 74.3854 411.902 74.5328 416.49 73.6462C421.064 72.7126 425.4 70.8587 429.234 68.1973C433.084 65.5315 436.565 62.3687 439.585 58.7912C439.688 58.6789 439.83 58.6082 439.982 58.5923C440.134 58.5764 440.287 58.6164 440.411 58.7049C444.313 61.594 448.471 64.1194 452.834 66.2495C457.174 68.4206 461.754 70.0756 466.479 71.1806C471.186 72.349 476.074 72.6002 480.876 71.9203C483.261 71.5133 485.589 70.8221 487.809 69.8616C490.002 68.8722 492.072 67.6311 493.978 66.1632C494.018 66.1268 494.071 66.1067 494.126 66.1067C494.18 66.1067 494.233 66.1268 494.274 66.1632C495.439 67.7287 497.008 68.9476 498.814 69.689C499.726 70.0376 500.701 70.1929 501.676 70.1451C502.681 70.0904 503.666 69.8391 504.575 69.4054C503.69 69.8602 502.728 70.1446 501.738 70.2437C500.739 70.3434 499.732 70.217 498.789 69.8739C497.839 69.5452 496.948 69.0666 496.149 68.4562C495.341 67.8589 494.616 67.1584 493.99 66.3728H494.286C492.393 67.9432 490.323 69.2878 488.118 70.3793C485.864 71.4047 483.495 72.1539 481.061 72.6107C476.142 73.4118 471.115 73.2527 466.257 72.1422C461.439 71.0423 456.765 69.3875 452.329 67.2111C447.88 65.0708 443.639 62.5246 439.659 59.6048L440.498 59.5185C437.401 63.1682 433.823 66.3821 429.863 69.0726C425.894 71.8055 421.405 73.6938 416.675 74.6201C411.943 75.505 407.07 75.2814 402.439 73.9667C400.134 73.3364 397.898 72.4774 395.764 71.4025C393.613 70.3525 391.586 69.0666 389.719 67.5686H390.102C389.082 68.5252 388.011 69.4264 386.894 70.2684C385.776 71.1103 384.606 71.8803 383.391 72.5737C380.982 73.9797 378.348 74.9598 375.606 75.4707Z" fill="#090F1B"/>
<path d="M391.706 70.7245C391.634 71.1631 391.409 71.5619 391.07 71.8496C390.731 72.1374 390.301 72.2953 389.856 72.2953C389.411 72.2953 388.981 72.1374 388.642 71.8496C388.303 71.5619 388.077 71.1631 388.005 70.7245C388.005 69.6889 389.868 67.3097 389.868 67.3097C389.868 67.3097 391.706 69.6889 391.706 70.7245ZM441.966 62.5635C441.914 63.0171 441.696 63.4356 441.355 63.7394C441.014 64.0432 440.573 64.2111 440.116 64.2111C439.659 64.2111 439.218 64.0432 438.877 63.7394C438.535 63.4356 438.318 63.0171 438.265 62.5635C438.265 61.5279 440.128 59.1487 440.128 59.1487C440.128 59.1487 441.966 61.5279 441.966 62.5635ZM496.113 69.6766C496.143 69.9374 496.118 70.2016 496.038 70.4519C495.959 70.7021 495.828 70.9329 495.653 71.1288C495.478 71.3248 495.264 71.4817 495.024 71.5891C494.785 71.6965 494.525 71.752 494.262 71.752C493.999 71.752 493.74 71.6965 493.5 71.5891C493.26 71.4817 493.046 71.3248 492.871 71.1288C492.697 70.9329 492.565 70.7021 492.486 70.4519C492.407 70.2016 492.381 69.9374 492.412 69.6766C492.412 68.6411 494.274 66.2618 494.274 66.2618C494.274 66.2618 496.113 68.6411 496.113 69.6766ZM391.213 99.855C391.141 100.294 390.915 100.692 390.576 100.98C390.237 101.268 389.807 101.426 389.362 101.426C388.917 101.426 388.487 101.268 388.148 100.98C387.809 100.692 387.584 100.294 387.512 99.855C387.512 98.8318 389.387 96.4526 389.387 96.4526C389.387 96.4526 391.213 98.8195 391.213 99.855ZM398.047 135.223C398.091 135.492 398.076 135.766 398.004 136.028C397.931 136.29 397.802 136.533 397.626 136.74C397.45 136.947 397.231 137.113 396.984 137.227C396.737 137.341 396.469 137.4 396.197 137.4C395.925 137.4 395.656 137.341 395.41 137.227C395.163 137.113 394.944 136.947 394.768 136.74C394.592 136.533 394.463 136.29 394.39 136.028C394.317 135.766 394.302 135.492 394.346 135.223C394.346 134.2 396.222 131.821 396.222 131.821C396.222 131.821 398.047 134.2 398.047 135.223ZM444.347 129.688C444.275 130.127 444.05 130.526 443.711 130.813C443.372 131.101 442.942 131.259 442.497 131.259C442.052 131.259 441.622 131.101 441.283 130.813C440.944 130.526 440.718 130.127 440.646 129.688C440.646 128.665 442.522 126.286 442.522 126.286C442.522 126.286 444.347 128.665 444.347 129.688ZM491.227 135.963C491.257 136.224 491.232 136.488 491.153 136.738C491.074 136.989 490.942 137.219 490.768 137.415C490.593 137.611 490.379 137.768 490.139 137.876C489.899 137.983 489.639 138.039 489.377 138.039C489.114 138.039 488.854 137.983 488.615 137.876C488.375 137.768 488.161 137.611 487.986 137.415C487.811 137.219 487.68 136.989 487.601 136.738C487.521 136.488 487.496 136.224 487.526 135.963C487.526 134.928 489.389 132.548 489.389 132.548C489.389 132.548 491.227 134.928 491.227 135.963ZM476.361 163.035C476.309 163.489 476.091 163.907 475.75 164.211C475.409 164.515 474.968 164.683 474.511 164.683C474.054 164.683 473.613 164.515 473.272 164.211C472.93 163.907 472.713 163.489 472.66 163.035C472.66 162.012 474.523 159.633 474.523 159.633C474.523 159.633 476.361 162.012 476.361 163.035ZM445.655 161.79C445.603 162.244 445.385 162.662 445.044 162.966C444.703 163.27 444.262 163.438 443.805 163.438C443.348 163.438 442.907 163.27 442.565 162.966C442.224 162.662 442.007 162.244 441.954 161.79C441.954 160.754 443.817 158.375 443.817 158.375C443.817 158.375 445.655 160.754 445.655 161.79ZM416.108 165.883C416.056 166.336 415.838 166.755 415.497 167.059C415.156 167.362 414.715 167.53 414.258 167.53C413.801 167.53 413.36 167.362 413.019 167.059C412.677 166.755 412.46 166.336 412.407 165.883C412.407 164.847 414.27 162.468 414.27 162.468C414.27 162.468 416.108 164.847 416.108 165.883ZM432.27 194.606C432.304 194.849 432.29 195.096 432.228 195.334C432.166 195.571 432.059 195.794 431.911 195.99C431.763 196.186 431.578 196.35 431.367 196.475C431.155 196.599 430.921 196.681 430.678 196.715C430.435 196.749 430.188 196.734 429.95 196.673C429.713 196.611 429.49 196.504 429.294 196.356C429.098 196.208 428.933 196.024 428.809 195.812C428.684 195.601 428.603 195.367 428.569 195.124C428.421 194.101 429.938 191.488 429.938 191.488C429.938 191.488 432.122 193.546 432.27 194.606ZM447.481 193.854C447.493 194.099 447.455 194.344 447.371 194.574C447.287 194.805 447.158 195.016 446.992 195.196C446.825 195.376 446.625 195.522 446.402 195.624C446.179 195.725 445.937 195.782 445.692 195.79C445.199 195.807 444.719 195.628 444.356 195.294C443.994 194.959 443.778 194.495 443.755 194.002C443.755 192.979 445.495 190.526 445.495 190.526C445.495 190.526 447.444 192.831 447.481 193.854ZM462.791 195.149C462.715 195.613 462.466 196.032 462.094 196.32C461.722 196.608 461.254 196.745 460.786 196.703C460.317 196.661 459.881 196.442 459.567 196.092C459.252 195.742 459.082 195.286 459.09 194.816C459.189 193.793 461.261 191.586 461.261 191.586C461.261 191.586 462.89 194.126 462.791 195.149ZM443.521 97.8579C443.551 98.1187 443.526 98.3829 443.446 98.6332C443.367 98.8835 443.236 99.1142 443.061 99.3102C442.886 99.5062 442.672 99.663 442.432 99.7704C442.193 99.8778 441.933 99.9333 441.67 99.9333C441.408 99.9333 441.148 99.8778 440.908 99.7704C440.669 99.663 440.454 99.5062 440.279 99.3102C440.105 99.1142 439.973 98.8835 439.894 98.6332C439.815 98.3829 439.79 98.1187 439.82 97.8579C439.82 96.8347 441.683 94.4431 441.683 94.4431C441.683 94.4431 443.521 96.8347 443.521 97.8579ZM497.618 102.752C497.648 103.013 497.623 103.277 497.543 103.527C497.464 103.778 497.333 104.008 497.158 104.204C496.983 104.4 496.769 104.557 496.529 104.665C496.29 104.772 496.03 104.827 495.767 104.827C495.505 104.827 495.245 104.772 495.005 104.665C494.765 104.557 494.551 104.4 494.376 104.204C494.202 104.008 494.07 103.778 493.991 103.527C493.912 103.277 493.887 103.013 493.917 102.752C493.917 101.729 495.78 99.3496 495.78 99.3496C495.78 99.3496 497.618 101.729 497.618 102.752Z" fill="#060C18"/>
<path d="M498.517 370.068C498.517 367.134 497.728 363.386 493.681 362.277C492.374 359.207 487.895 356.939 482.578 356.939V356.076C482.578 348.383 473.708 342.146 462.765 342.146C462.05 342.146 461.347 342.146 460.656 342.232V342.146C460.656 332.776 451.588 325.182 440.411 325.182C429.234 325.182 420.166 332.776 420.166 342.146V342.614C417.35 341.721 414.411 341.272 411.456 341.283C398.811 341.283 388.559 349.271 388.559 359.121C388.559 366.974 395.086 373.643 404.141 376.022L405.436 376.33C407.415 376.75 409.433 376.96 411.456 376.959C413.541 376.959 487.291 376.33 487.291 376.33C490.211 376.351 493.075 375.534 495.544 373.976C497.173 372.928 498.517 371.584 498.517 370.068ZM154.209 117.989C154.209 115.055 153.432 111.308 149.373 110.198C148.066 107.129 143.587 104.86 138.27 104.86V103.985C138.27 96.3047 129.4 90.0668 118.531 90.0668C117.816 90.0668 117.1 90.0668 116.409 90.1408V90.0668C116.409 80.6977 107.354 73.0915 96.1646 73.0915C84.9751 73.0915 75.8706 80.6977 75.8706 90.0668V90.5353C73.0546 89.6388 70.1162 89.1855 67.1608 89.1916C54.5156 89.1916 44.2637 97.18 44.2637 107.03C44.2637 114.895 50.7898 121.552 59.8451 123.931L61.0787 124.239C63.0581 124.658 65.0759 124.869 67.0991 124.868C69.184 124.868 142.933 124.239 142.933 124.239C145.854 124.268 148.721 123.45 151.187 121.885C152.877 120.812 154.209 119.506 154.209 117.989ZM600.999 44.8855C600.999 41.9515 600.21 38.2162 596.163 37.0943C594.855 34.0247 590.377 31.7564 585.06 31.7564V30.8811C585.06 23.1886 576.19 16.9507 565.247 16.9507C564.532 16.9507 563.828 16.9507 563.138 17.037V16.9507C563.101 7.59392 554.033 0 542.819 0C531.605 0 522.574 7.59392 522.574 16.963V17.4315C519.756 16.545 516.819 16.0959 513.864 16.1001C501.219 16.1001 490.967 24.0885 490.967 33.9384C490.967 41.7912 497.493 48.4606 506.549 50.8398L507.844 51.148C509.823 51.5672 511.841 51.7779 513.864 51.7767C515.949 51.7767 589.699 51.148 589.699 51.148C592.62 51.1753 595.486 50.3575 597.952 48.7934C599.568 47.7455 600.999 46.4018 600.999 44.8855Z" fill="#C1E3F7"/>
<path d="M575.03 260.77C572.549 261.367 570.031 261.804 567.492 262.077C564.976 262.372 562.455 262.578 559.93 262.693C557.405 262.808 554.876 262.837 552.343 262.779C549.791 262.733 547.245 262.527 544.719 262.163C547.2 261.564 549.718 261.128 552.257 260.856C554.773 260.56 557.294 260.355 559.819 260.24C562.348 260.116 564.877 260.104 567.406 260.166C569.958 260.202 572.505 260.404 575.03 260.77Z" fill="#287B77"/>
<path d="M560.571 276.611C559.973 274.131 559.536 271.615 559.264 269.079C558.968 266.564 558.758 264.045 558.634 261.522C558.511 258.999 558.486 256.471 558.56 253.94C558.608 251.39 558.814 248.846 559.177 246.322C559.775 248.801 560.212 251.317 560.485 253.854C560.781 256.369 560.987 258.888 561.102 261.411C561.225 263.876 561.238 266.465 561.176 268.992C561.14 271.542 560.938 274.087 560.571 276.611ZM529.372 266.847C529.981 268.985 530.431 271.165 530.716 273.369C531.037 275.551 531.259 277.733 531.382 279.927C531.506 282.121 531.555 284.316 531.506 286.522C531.481 288.748 531.292 290.969 530.938 293.167C530.33 291.025 529.88 288.841 529.594 286.633C529.285 284.451 529.051 282.269 528.927 280.075C528.804 277.881 528.755 275.686 528.804 273.48C528.828 271.258 529.018 269.041 529.372 266.847Z" fill="#287B77"/>
<path d="M543.326 279.212C541.186 279.82 539.005 280.273 536.8 280.568C534.616 280.876 532.433 281.098 530.237 281.234C528.041 281.369 525.833 281.406 523.637 281.357C521.409 281.332 519.187 281.143 516.987 280.79C519.126 280.178 521.307 279.725 523.513 279.434C525.697 279.126 527.893 278.892 530.089 278.768C532.285 278.645 534.481 278.608 536.689 278.657C538.912 278.683 541.13 278.869 543.326 279.212ZM171.853 24.5446C169.372 25.1558 166.854 25.6046 164.315 25.8883C161.798 26.1842 159.277 26.3896 156.752 26.5047C154.285 26.628 151.694 26.6403 149.165 26.5786C146.613 26.5439 144.066 26.338 141.541 25.9623C144.024 25.3705 146.541 24.934 149.079 24.6555C151.546 24.372 154.112 24.1501 156.641 24.0391C159.17 23.9282 161.699 23.9035 164.228 23.9651C166.779 23.9989 169.326 24.1924 171.853 24.5446Z" fill="#287B77"/>
<path d="M157.393 40.3858C156.795 37.9059 156.358 35.3899 156.086 32.8535C155.789 30.3387 155.584 27.8197 155.469 25.2966C155.345 22.7694 155.333 20.2422 155.395 17.715C155.431 15.1651 155.632 12.6202 155.999 10.0964C156.601 12.5719 157.042 15.0839 157.319 17.6164C157.603 20.1436 157.825 22.6585 157.936 25.1857C158.047 27.7129 158.072 30.24 157.936 32.7672C157.92 35.3158 157.738 37.8606 157.393 40.3858ZM126.193 30.6099C126.8 32.7488 127.254 34.9281 127.551 37.1313C127.859 39.3133 128.081 41.5077 128.217 43.702C128.352 45.8963 128.389 48.0907 128.34 50.2974C128.316 52.5192 128.126 54.7361 127.773 56.9297C127.159 54.7926 126.705 52.6128 126.416 50.4083C126.107 48.2263 125.873 46.0443 125.749 43.8499C125.626 41.6556 125.589 39.4489 125.638 37.2546C125.665 35.0293 125.85 32.8088 126.193 30.6099Z" fill="#287B77"/>
<path d="M140.159 42.9871C138.015 43.5953 135.83 44.0444 133.62 44.3308C131.437 44.6513 129.253 44.8733 127.057 44.9965C124.861 45.1198 122.665 45.1691 120.457 45.1198C118.234 45.0957 116.015 44.9062 113.82 44.5527C115.959 43.9434 118.14 43.4942 120.346 43.209C122.53 42.9008 124.713 42.6666 126.909 42.5433C129.105 42.42 131.301 42.3707 133.509 42.42C135.737 42.4446 137.959 42.6342 140.159 42.9871ZM122.308 474.152C119.812 474.741 117.282 475.173 114.733 475.446C112.265 475.742 109.699 475.964 107.17 476.075C104.641 476.186 102.112 476.21 99.5831 476.149C97.0311 476.108 94.4843 475.902 91.959 475.532C94.4407 474.935 96.9586 474.498 99.4968 474.226C102.013 473.93 104.534 473.724 107.059 473.609C109.527 473.486 112.117 473.474 114.646 473.535C117.211 473.574 119.77 473.78 122.308 474.152Z" fill="#287B77"/>
<path d="M107.849 489.98C107.251 487.505 106.814 484.993 106.541 482.46C106.245 479.946 106.039 477.422 105.924 474.891C105.809 472.36 105.78 469.833 105.838 467.31C105.885 464.76 106.091 462.215 106.455 459.691C107.053 462.171 107.49 464.687 107.762 467.223C108.058 469.689 108.28 472.265 108.379 474.78C108.478 477.295 108.527 479.835 108.453 482.374C108.417 484.92 108.215 487.461 107.849 489.98ZM76.6489 480.217C77.2569 482.355 77.7104 484.535 78.006 486.738C78.3144 488.92 78.5364 491.102 78.6721 493.297C78.8078 495.491 78.8449 497.698 78.7955 499.892C78.7709 502.118 78.5812 504.339 78.228 506.537C77.6154 504.399 77.1618 502.219 76.871 500.015C76.5625 497.833 76.3281 495.639 76.2048 493.444C76.0814 491.25 76.0321 489.056 76.0814 486.849C76.1055 484.627 76.2952 482.41 76.6489 480.217Z" fill="#287B77"/>
<path d="M90.6008 492.582C88.4622 493.195 86.2807 493.648 84.0746 493.938C81.891 494.246 79.7074 494.48 77.5115 494.603C75.3155 494.727 73.1195 494.776 70.9113 494.727C68.6838 494.702 66.4612 494.513 64.2617 494.16C66.406 493.552 68.5911 493.099 70.8002 492.804C72.9838 492.495 75.1675 492.273 77.3634 492.138C79.5594 492.002 81.7553 491.978 83.9636 492.027C86.1864 492.053 88.4045 492.238 90.6008 492.582Z" fill="#287B77"/>
<path d="M0 253.496C2.11453 248.6 4.80655 243.973 8.01893 239.714C11.2797 235.475 15.1453 231.737 19.4922 228.619C23.861 225.467 28.7332 223.078 33.9016 221.555C39.0571 220.151 44.2881 219.04 49.5693 218.227C54.8014 217.374 59.9824 216.234 65.089 214.812C70.1787 213.35 75.1759 211.584 80.0536 209.523C84.9474 207.472 89.7175 205.139 94.3396 202.533C98.9906 199.981 103.481 197.134 107.91 194.15C99.4035 200.581 90.1849 206.012 80.436 210.337C70.6412 214.647 60.3407 217.704 49.779 219.435C44.5419 220.208 39.3523 221.274 34.2346 222.628C29.1794 224.079 24.3896 226.331 20.0473 229.297C11.3005 235.288 4.67565 243.979 0 253.496Z" fill="#A0C2EA"/>
<path d="M357.212 346.879C358.81 341.79 361.014 336.91 363.775 332.345C366.557 327.747 370.013 323.591 374.027 320.017C378.038 316.433 382.626 313.553 387.598 311.499C392.575 309.569 397.658 307.922 402.821 306.568C407.94 305.186 412.977 303.519 417.909 301.575C422.82 299.588 427.611 297.315 432.257 294.77C436.911 292.221 441.413 289.406 445.741 286.338C450.096 283.317 454.266 280.026 458.337 276.599C450.556 283.895 441.958 290.27 432.714 295.596C423.417 300.876 413.489 304.96 403.167 307.751C398.031 309.058 392.973 310.655 388.017 312.534C383.14 314.533 378.613 317.296 374.607 320.72C366.576 327.599 360.876 336.943 357.212 346.879ZM214.031 108.349C218.473 107.527 222.873 106.545 227.232 105.403C231.587 104.17 235.867 102.838 240.161 101.458C244.462 100.156 248.64 98.477 252.645 96.4403C254.604 95.3937 256.424 94.1056 258.061 92.6064C259.678 91.0904 261.059 89.341 262.157 87.4164C263.269 85.5046 264.163 83.4743 264.822 81.3635C265.508 79.2921 265.744 77.0981 265.513 74.9283C265.386 73.8774 265.036 72.8659 264.484 71.962C263.933 71.0582 263.194 70.283 262.318 69.689C260.499 68.5118 258.41 67.8161 256.248 67.6673C254.079 67.4719 251.894 67.7712 249.857 68.5425C248.863 68.9075 247.952 69.4694 247.18 70.1945C246.414 70.8681 245.861 71.7507 245.589 72.734C245.16 74.8321 245.393 77.0114 246.255 78.9719C247.03 81.0181 248.139 82.9218 249.537 84.6057C252.374 87.9465 256.495 89.9559 260.64 91.3736C264.921 92.7066 269.28 93.777 273.692 94.5788C282.481 96.471 291.494 97.1102 300.463 96.4773C318.487 94.8615 335.643 88.0042 349.81 76.7529C342.838 82.5209 335.073 87.258 326.753 90.8189C322.581 92.5836 318.279 94.022 313.885 95.1213C309.521 96.2351 305.073 96.9937 300.586 97.3896C291.532 98.1303 282.418 97.5489 273.532 95.6637C269.064 94.8565 264.648 93.7863 260.307 92.4585C256.026 91.0161 251.671 88.9574 248.599 85.37C247.115 83.577 245.943 81.5475 245.132 79.3663C244.183 77.1636 243.95 74.7187 244.466 72.3765C244.792 71.1796 245.461 70.1041 246.391 69.2822C247.276 68.4665 248.31 67.8301 249.438 67.4084C251.636 66.58 253.996 66.2679 256.334 66.4961C258.696 66.6548 260.976 67.4283 262.947 68.7398C263.938 69.4291 264.778 70.3144 265.414 71.341C266.022 72.3785 266.416 73.5269 266.574 74.7188C266.829 77.0432 266.572 79.3953 265.821 81.61C265.111 83.7925 264.159 85.8889 262.984 87.8602C261.815 89.8454 260.355 91.6446 258.653 93.1981C256.95 94.7287 255.06 96.0376 253.028 97.0937C248.96 99.1105 244.72 100.761 240.358 102.025C236.028 103.258 231.722 104.614 227.318 105.723C222.914 106.833 218.497 107.659 214.031 108.349Z" fill="#C1E3F7"/>
</g>
<defs>
<clipPath id="clip0_731_6757">
<rect width="601" height="519" fill="white"/>
</clipPath>
</defs>
</svg>
